<?xml version="1.0" encoding="UTF-8"?><svg xmlns="http://www.w3.org/2000/svg" viewBox="0 0 900 460"><defs><style>.l{letter-spacing:-.07em;}.m,.n{fill:#4c74b8;}.o{fill:#343f52;font-size:42px;}.o,.p,.n,.q{font-family:Arial-BoldMT, Arial;}.r{fill:#dfe8f5;}.p,.n,.q{font-size:28px;}.p,.s{fill:#698bc4;}.q{fill:#fff;}.t{letter-spacing:-.04em;}</style></defs><g id="a"><path class="r" d="M848.91,347.86h-10.53v-71.88c0-12.79-10.41-23.2-23.2-23.2h-165.92v-10.53h165.92c18.6,0,33.72,15.13,33.72,33.72v71.88Z"/><rect class="r" x="159.02" y="318.2" width="26.63" height="30.28"/><rect class="r" x="86.14" y="377.79" width="26.63" height="29.16" transform="translate(491.83 292.93) rotate(90)"/><rect class="r" x="230.07" y="378.58" width="26.63" height="27.59" transform="translate(635.76 148.99) rotate(90)"/><rect class="r" x="369.4" y="405.99" width="24.88" height="25.78" transform="translate(800.72 37.03) rotate(90)"/><rect class="r" x="582.69" y="309.78" width="24.88" height="27.03" transform="translate(1190.27 646.59) rotate(180)"/><polygon class="r" points="128.99 222.65 151.74 171.15 166.44 168.24 219.35 222.65 128.99 222.65"/><text class="o" transform="translate(7.85 48.82)"><tspan x="0" y="0">Stages of 3D Concrete Printing</tspan></text></g><g id="b"><rect class="m" x="790.14" y="336.81" width="107.01" height="107.01"/><text class="q" transform="translate(813.32 400.19)"><tspan x="0" y="0">CNC</tspan></text></g><g id="c"><g><g><rect class="m" x="490.71" y="336.81" width="116.87" height="22.09"/><rect class="m" x="490.71" y="365.12" width="248.35" height="22.09"/><rect class="m" x="490.71" y="393.43" width="248.35" height="22.09"/><rect class="m" x="490.71" y="421.73" width="248.35" height="22.09"/></g><text class="n" transform="translate(614.36 355.97)"><tspan x="0" y="0">Structure</tspan></text></g></g><g id="d"><polygon class="m" points="649.27 222.65 649.27 279.78 621.4 295.77 621.4 313.06 607.57 322.44 582.72 322.44 568.87 313.06 568.87 295.77 541 279.78 541 222.65 649.27 222.65"/><text class="q" transform="translate(550.8 267.94)"><tspan x="0" y="0">Nozzle</tspan></text></g><g id="e"><polygon class="m" points="776.96 443.82 755.91 443.82 755.91 195.85 477.62 195.85 477.62 443.82 456.57 443.82 456.57 174.8 776.96 174.8 776.96 443.82"/><text class="n" transform="translate(629.39 159.1)"><tspan x="0" y="0">Gantry</tspan></text></g><g id="f"><path class="s" d="M394.73,429.4v-21.05c11.93,0,21.63-9.7,21.63-21.63V165.28c0-27.58,22.44-50.02,50.02-50.02h89.25c27.58,0,50.02,22.44,50.02,50.02v57.37h-21.05v-57.37c0-15.97-13-28.97-28.97-28.97h-89.25c-15.97,0-28.97,12.99-28.97,28.97v221.44c0,23.54-19.15,42.68-42.68,42.68Z"/><text class="p" transform="translate(468.82 104.6)"><tspan x="0" y="0">Hose</tspan></text></g><g id="g"><path class="s" d="M368.95,395.49v44.46c0,1.72-1.39,3.11-3.11,3.11h-62.25c-29.2,0-52.62-24.66-50.57-54.28,1.73-24.99,21.98-45.24,46.97-46.97,28.63-1.98,52.62,19.83,54.2,47.65,.09,1.64,1.45,2.92,3.09,2.92h8.56c1.72,0,3.11,1.39,3.11,3.11Z"/><text class="q" transform="translate(264.35 400.19)"><tspan x="0" y="0">Pump</tspan></text></g><g id="h"><path class="m" d="M89.8,356.76v71.21c0,8.34-19.53,15.1-43.65,15.1s-43.65-6.76-43.65-15.1v-71.21c0-8.31,19.55-15.07,43.65-15.07s43.65,6.76,43.65,15.07Z"/><text class="q" transform="translate(7.77 385.26)"><tspan class="t" x="0" y="0">W</tspan><tspan x="25.39" y="0">ater</tspan><tspan class="l" x="6.74" y="33.6">T</tspan><tspan x="21.77" y="33.6">ank</tspan></text></g><g id="i"><rect class="m" x="108.38" y="341.69" width="127.9" height="101.38" rx="2" ry="2"/><text class="q" transform="translate(135.76 400.19)"><tspan x="0" y="0">Mixer</tspan></text></g><g id="j"><path class="m" d="M236.28,225.76v46.67c0,.82-.33,1.62-.91,2.2l-46.9,46.9c-.58,.58-1.37,.91-2.2,.91h-27.89c-.82,0-1.62-.33-2.2-.91l-46.9-46.9c-.58-.58-.91-1.37-.91-2.2v-46.67c0-1.72,1.39-3.11,3.11-3.11h121.68c1.72,0,3.11,1.39,3.11,3.11Z"/><text class="q" transform="translate(146.66 272.55)"><tspan x="0" y="0">Silo</tspan></text></g><g id="k"><rect class="m" x="92.44" y="97.18" width="89.1" height="59.66" rx="5.11" ry="5.11" transform="translate(81.86 -51.48) rotate(30)"/><text class="q" transform="translate(112.87 122.1) rotate(30)"><tspan x="0" y="0">Dry</tspan></text></g></svg>